<?xml version="1.0" encoding="UTF-8"?>
<svg width="400px" height="400px" viewBox="0 0 400 400" version="1.1" xmlns="http://www.w3.org/2000/svg">
    <title>Cabinet Detailed</title>
    <g stroke="none" stroke-width="1" fill="none" fill-rule="evenodd">
        <rect fill="#4B5563" x="0" y="0" width="400" height="400"></rect>
        <g transform="translate(100, 80)">
            <!-- Cabinet body -->
            <rect x="0" y="0" width="200" height="240" rx="4" fill="#A0522D" stroke="#8B4513" stroke-width="6"></rect>
            
            <!-- Cabinet doors -->
            <rect x="5" y="5" width="90" height="230" rx="2" fill="#B25D30" stroke="#8B4513" stroke-width="2"></rect>
            <rect x="105" y="5" width="90" height="230" rx="2" fill="#B25D30" stroke="#8B4513" stroke-width="2"></rect>
            
            <!-- Cabinet shelves -->
            <line x1="5" y1="80" x2="95" y2="80" stroke="#8B4513" stroke-width="2" stroke-linecap="round"></line>
            <line x1="105" y1="80" x2="195" y2="80" stroke="#8B4513" stroke-width="2" stroke-linecap="round"></line>
            <line x1="5" y1="160" x2="95" y2="160" stroke="#8B4513" stroke-width="2" stroke-linecap="round"></line>
            <line x1="105" y1="160" x2="195" y2="160" stroke="#8B4513" stroke-width="2" stroke-linecap="round"></line>
            
            <!-- Door handles -->
            <circle cx="85" cy="120" r="6" fill="#D4A76A" stroke="#8B4513" stroke-width="1"></circle>
            <circle cx="115" cy="120" r="6" fill="#D4A76A" stroke="#8B4513" stroke-width="1"></circle>
            
            <!-- Wood grain effect -->
            <path d="M10,20 C50,15 90,25 95,15" stroke="#8B4513" stroke-width="1" opacity="0.3"></path>
            <path d="M10,40 C50,35 90,45 95,35" stroke="#8B4513" stroke-width="1" opacity="0.3"></path>
            <path d="M10,60 C50,55 90,65 95,55" stroke="#8B4513" stroke-width="1" opacity="0.3"></path>
            <path d="M10,100 C50,95 90,105 95,95" stroke="#8B4513" stroke-width="1" opacity="0.3"></path>
            <path d="M10,120 C50,115 90,125 95,115" stroke="#8B4513" stroke-width="1" opacity="0.3"></path>
            <path d="M10,140 C50,135 90,145 95,135" stroke="#8B4513" stroke-width="1" opacity="0.3"></path>
            <path d="M10,180 C50,175 90,185 95,175" stroke="#8B4513" stroke-width="1" opacity="0.3"></path>
            <path d="M10,200 C50,195 90,205 95,195" stroke="#8B4513" stroke-width="1" opacity="0.3"></path>
            <path d="M10,220 C50,215 90,225 95,215" stroke="#8B4513" stroke-width="1" opacity="0.3"></path>
            
            <path d="M110,20 C150,15 190,25 195,15" stroke="#8B4513" stroke-width="1" opacity="0.3"></path>
            <path d="M110,40 C150,35 190,45 195,35" stroke="#8B4513" stroke-width="1" opacity="0.3"></path>
            <path d="M110,60 C150,55 190,65 195,55" stroke="#8B4513" stroke-width="1" opacity="0.3"></path>
            <path d="M110,100 C150,95 190,105 195,95" stroke="#8B4513" stroke-width="1" opacity="0.3"></path>
            <path d="M110,120 C150,115 190,125 195,115" stroke="#8B4513" stroke-width="1" opacity="0.3"></path>
            <path d="M110,140 C150,135 190,145 195,135" stroke="#8B4513" stroke-width="1" opacity="0.3"></path>
            <path d="M110,180 C150,175 190,185 195,175" stroke="#8B4513" stroke-width="1" opacity="0.3"></path>
            <path d="M110,200 C150,195 190,205 195,195" stroke="#8B4513" stroke-width="1" opacity="0.3"></path>
            <path d="M110,220 C150,215 190,225 195,215" stroke="#8B4513" stroke-width="1" opacity="0.3"></path>
        </g>
    </g>
</svg>
