<?xml version="1.0" encoding="UTF-8"?>
<svg width="200px" height="200px" viewBox="0 0 200 200" version="1.1" xmlns="http://www.w3.org/2000/svg">
    <title>Fabric Texture</title>
    <g stroke="none" stroke-width="1" fill="none" fill-rule="evenodd">
        <rect fill="#CCCCCC" x="0" y="0" width="200" height="200"></rect>
        <g stroke="#FFFFFF" stroke-width="0.5" opacity="0.2">
            <path d="M0,0 L200,200" />
            <path d="M10,0 L210,200" />
            <path d="M20,0 L220,200" />
            <path d="M30,0 L230,200" />
            <path d="M40,0 L240,200" />
            <path d="M50,0 L250,200" />
            <path d="M60,0 L260,200" />
            <path d="M70,0 L270,200" />
            <path d="M80,0 L280,200" />
            <path d="M90,0 L290,200" />
            <path d="M100,0 L300,200" />
            <path d="M110,0 L310,200" />
            <path d="M120,0 L320,200" />
            <path d="M130,0 L330,200" />
            <path d="M140,0 L340,200" />
            <path d="M150,0 L350,200" />
            <path d="M160,0 L360,200" />
            <path d="M170,0 L370,200" />
            <path d="M180,0 L380,200" />
            <path d="M190,0 L390,200" />
            <path d="M200,0 L400,200" />
            <path d="M0,10 L200,210" />
            <path d="M0,20 L200,220" />
            <path d="M0,30 L200,230" />
            <path d="M0,40 L200,240" />
            <path d="M0,50 L200,250" />
            <path d="M0,60 L200,260" />
            <path d="M0,70 L200,270" />
            <path d="M0,80 L200,280" />
            <path d="M0,90 L200,290" />
            <path d="M0,100 L200,300" />
            <path d="M0,110 L200,310" />
            <path d="M0,120 L200,320" />
            <path d="M0,130 L200,330" />
            <path d="M0,140 L200,340" />
            <path d="M0,150 L200,350" />
            <path d="M0,160 L200,360" />
            <path d="M0,170 L200,370" />
            <path d="M0,180 L200,380" />
            <path d="M0,190 L200,390" />
        </g>
        <g stroke="#FFFFFF" stroke-width="0.5" opacity="0.2">
            <path d="M200,0 L0,200" />
            <path d="M190,0 L-10,200" />
            <path d="M180,0 L-20,200" />
            <path d="M170,0 L-30,200" />
            <path d="M160,0 L-40,200" />
            <path d="M150,0 L-50,200" />
            <path d="M140,0 L-60,200" />
            <path d="M130,0 L-70,200" />
            <path d="M120,0 L-80,200" />
            <path d="M110,0 L-90,200" />
            <path d="M100,0 L-100,200" />
            <path d="M90,0 L-110,200" />
            <path d="M80,0 L-120,200" />
            <path d="M70,0 L-130,200" />
            <path d="M60,0 L-140,200" />
            <path d="M50,0 L-150,200" />
            <path d="M40,0 L-160,200" />
            <path d="M30,0 L-170,200" />
            <path d="M20,0 L-180,200" />
            <path d="M10,0 L-190,200" />
            <path d="M0,0 L-200,200" />
            <path d="M200,10 L0,210" />
            <path d="M200,20 L0,220" />
            <path d="M200,30 L0,230" />
            <path d="M200,40 L0,240" />
            <path d="M200,50 L0,250" />
            <path d="M200,60 L0,260" />
            <path d="M200,70 L0,270" />
            <path d="M200,80 L0,280" />
            <path d="M200,90 L0,290" />
            <path d="M200,100 L0,300" />
            <path d="M200,110 L0,310" />
            <path d="M200,120 L0,320" />
            <path d="M200,130 L0,330" />
            <path d="M200,140 L0,340" />
            <path d="M200,150 L0,350" />
            <path d="M200,160 L0,360" />
            <path d="M200,170 L0,370" />
            <path d="M200,180 L0,380" />
            <path d="M200,190 L0,390" />
        </g>
    </g>
</svg>
