<?xml version="1.0" encoding="UTF-8"?>
<svg width="200px" height="200px" viewBox="0 0 200 200" version="1.1" xmlns="http://www.w3.org/2000/svg">
    <title>Leather Texture</title>
    <defs>
        <filter id="noise" x="0%" y="0%" width="100%" height="100%">
            <feTurbulence type="fractalNoise" baseFrequency="0.05" numOctaves="2" result="noise" />
            <feDisplacementMap in="SourceGraphic" in2="noise" scale="5" xChannelSelector="R" yChannelSelector="G" />
        </filter>
    </defs>
    <g stroke="none" stroke-width="1" fill="none" fill-rule="evenodd">
        <rect fill="#8B4513" x="0" y="0" width="200" height="200"></rect>
        <rect fill="#A0522D" x="0" y="0" width="200" height="200" opacity="0.3" filter="url(#noise)"></rect>
        <g stroke="#000000" stroke-width="0.5" opacity="0.1">
            <circle cx="20" cy="20" r="5"></circle>
            <circle cx="50" cy="30" r="3"></circle>
            <circle cx="80" cy="15" r="4"></circle>
            <circle cx="110" cy="25" r="2"></circle>
            <circle cx="140" cy="10" r="3"></circle>
            <circle cx="170" cy="20" r="4"></circle>
            <circle cx="30" cy="50" r="3"></circle>
            <circle cx="60" cy="60" r="4"></circle>
            <circle cx="90" cy="45" r="2"></circle>
            <circle cx="120" cy="55" r="3"></circle>
            <circle cx="150" cy="40" r="4"></circle>
            <circle cx="180" cy="50" r="2"></circle>
            <circle cx="20" cy="80" r="4"></circle>
            <circle cx="50" cy="90" r="2"></circle>
            <circle cx="80" cy="75" r="3"></circle>
            <circle cx="110" cy="85" r="4"></circle>
            <circle cx="140" cy="70" r="2"></circle>
            <circle cx="170" cy="80" r="3"></circle>
            <circle cx="30" cy="110" r="2"></circle>
            <circle cx="60" cy="120" r="3"></circle>
            <circle cx="90" cy="105" r="4"></circle>
            <circle cx="120" cy="115" r="2"></circle>
            <circle cx="150" cy="100" r="3"></circle>
            <circle cx="180" cy="110" r="4"></circle>
            <circle cx="20" cy="140" r="3"></circle>
            <circle cx="50" cy="150" r="4"></circle>
            <circle cx="80" cy="135" r="2"></circle>
            <circle cx="110" cy="145" r="3"></circle>
            <circle cx="140" cy="130" r="4"></circle>
            <circle cx="170" cy="140" r="2"></circle>
            <circle cx="30" cy="170" r="4"></circle>
            <circle cx="60" cy="180" r="2"></circle>
            <circle cx="90" cy="165" r="3"></circle>
            <circle cx="120" cy="175" r="4"></circle>
            <circle cx="150" cy="160" r="2"></circle>
            <circle cx="180" cy="170" r="3"></circle>
        </g>
    </g>
</svg>
